<?xml version="1.0" standalone="no"?>
<!DOCTYPE svg PUBLIC "-//W3C//DTD SVG 20010904//EN"
 "http://www.w3.org/TR/2001/REC-SVG-20010904/DTD/svg10.dtd">
<svg version="1.0" xmlns="http://www.w3.org/2000/svg"
 width="986.000000pt" height="986.000000pt" viewBox="0 0 986.000000 986.000000"
 preserveAspectRatio="xMidYMid meet">
<metadata>
Created by potrace 1.11, written by Peter Selinger 2001-2013
</metadata>
<g transform="translate(0.000000,986.000000) scale(0.100000,-0.100000)"
fill="#000000" stroke="none">
<path d="M3885 7900 l-990 -990 495 -495 494 -494 -224 -225 c-124 -124 -228
-225 -233 -223 -4 1 -331 325 -726 721 l-719 718 -101 -101 c-56 -56 -106
-101 -111 -101 -6 0 -9 -5 -7 -12 1 -7 -4 -12 -10 -13 -7 0 -13 -4 -12 -9 0
-5 -11 -16 -25 -26 -15 -9 -24 -19 -21 -22 3 -2 -8 -17 -25 -31 -32 -29 -46
-35 -34 -14 4 7 3 9 -2 4 -5 -5 -10 -13 -10 -18 -1 -5 -2 -14 -3 -20 0 -5 -5
-7 -11 -4 -5 3 -10 2 -10 -3 0 -11 -360 -374 -360 -364 0 4 -4 0 -10 -8 -5 -8
-284 -290 -620 -625 l-610 -611 984 -984 c541 -541 988 -986 993 -987 5 -2
332 319 726 713 593 593 719 715 731 705 48 -40 431 -433 429 -441 -2 -5 -223
-229 -493 -499 l-491 -491 990 -990 991 -991 990 991 991 990 -486 486 c-267
267 -486 489 -488 494 -2 9 492 510 502 510 3 0 339 -333 745 -740 407 -407
743 -740 746 -740 4 0 451 444 994 987 l987 987 -991 990 -990 990 -747 -747
c-411 -411 -749 -747 -751 -747 -3 0 -116 111 -253 248 l-248 247 492 493
c271 271 493 496 495 500 1 4 -442 451 -986 995 l-987 987 -990 -990z"/>
<path d="M1660 6610 c-9 -6 -10 -10 -3 -10 6 0 15 5 18 10 8 12 4 12 -15 0z"/>
</g>
</svg>
